# xmcd
#
# Track frame offsets: 
#        150
#        6450
#        22206
#        36033
#        54339
#        69892
#        84855
#        100606
#        107775
#        120983
#        129636
#        141646
#        154998
#        168273
#
# Disc length: 2476 seconds
#
# Revision: 0
# Processed by: cddbd v1.5.1PL2 Copyright (c) Steve Scherf et al.
# Submitted via: ExactAudioCopy v0.95b3
#
DISCID=b409aa0e
DTITLE=Larry Keel - Journey
DYEAR=2004
DGENRE=Country
TTITLE0=Roanoke
TTITLE1=Just Havin Fun
TTITLE2=Mark Vann's Song
TTITLE3=Mother
TTITLE4=Dreams
TTITLE5=Pontapees
TTITLE6=Mountain Song
TTITLE7=Broad Run Picnic
TTITLE8=Ange's Song
TTITLE9=Road to Columbus
TTITLE10=Journey
TTITLE11=God Don't Never Change
TTITLE12=Ko Ko Joe
TTITLE13=Hangman
EXTD=
EXTT0=
EXTT1=
EXTT2=
EXTT3=
EXTT4=
EXTT5=
EXTT6=
EXTT7=
EXTT8=
EXTT9=
EXTT10=
EXTT11=
EXTT12=
EXTT13=
PLAYORDER=
